PathFileType  4	(X/Y/Z) /Users/kristensteudel/Documents/NMBL_Research/BertecForceProcessing/anc_files/
DataRate	CameraRate	NumFrames	NumMarkers	Units	OrigDataRate	OrigDataStartFrame	OrigNumFrames
  200.0		  200.0		   5		     46		 mm	  200.0	      732	   1171
Frame#	Time	r_knee			r_shank_antsup			r_ankle			r_calc			r_5meta			r_toe			L_knee			L_shank_antsup			L_ankle			L_calc			L_5meta			L_toe			r_sh2			r_sh3			r_sh4			L_sh2			L_sh3			r_thigh1			r_thigh2			r_thigh3			r_thigh4			r_thigh5			L_thigh1			L_thigh2			L_thigh3			L_thigh4			r.ASIS			r.PSIS			L.ASIS			L.PSIS			C7			R_Shoulder			L_Shoulder			Sternum			R_humerus			R_elbow_med			R_elbow_lat			R_forearm			R_wrist_radius			R_wrist_ulna			L_humerus			L_elbow_med			L_elbow_lat			L_forearm			L_wrist_radius			L_wrist_ulna			
		X1	Y1	Z1	X2	Y2	Z2	X3	Y3	Z3	X4	Y4	Z4	X5	Y5	Z5	X6	Y6	Z6	X7	Y7	Z7	X8	Y8	Z8	X9	Y9	Z9	X10	Y10	Z10	X11	Y11	Z11	X12	Y12	Z12	X13	Y13	Z13	X14	Y14	Z14	X15	Y15	Z15	X16	Y16	Z16	X17	Y17	Z17	X18	Y18	Z18	X19	Y19	Z19	X20	Y20	Z20	X21	Y21	Z21	X22	Y22	Z22	X23	Y23	Z23	X24	Y24	Z24	X25	Y25	Z25	X26	Y26	Z26	X27	Y27	Z27	X28	Y28	Z28	X29	Y29	Z29	X30	Y30	Z30	X31	Y31	Z31	X32	Y32	Z32	X33	Y33	Z33	X34	Y34	Z34	X35	Y35	Z35	X36	Y36	Z36	X37	Y37	Z37	X38	Y38	Z38	X39	Y39	Z39	X40	Y40	Z40	X41	Y41	Z41	X42	Y42	Z42	X43	Y43	Z43	X44	Y44	Z44	X45	Y45	Z45	X46	Y46	Z46	

732	3.65500	973.826	545.648	-197.170	1022.163	438.651	-194.560	1086.556	116.271	-270.947	1027.860	102.857	-352.873	1208.646	28.879	-261.437	1255.799	83.170	-294.726	658.678	533.351	-512.946	544.765	537.635	-502.494	288.947	702.040	-449.661	318.180	759.249	-399.730	129.467	643.706	-443.280	128.677	604.789	-373.793	1053.823	326.244	-219.772	951.823	415.144	-186.952	973.413	310.102	-230.324	581.141	620.030	-520.433	469.835	661.785	-489.739	956.983	771.415	-153.938	994.448	666.233	-180.736	967.419	618.275	-161.824	856.874	726.097	-128.039	900.367	625.889	-172.181	811.173	705.780	-508.842	765.530	573.245	-500.438	701.716	745.899	-534.221	661.443	614.301	-512.015	858.993	1011.555	-189.848	657.736	1061.307	-263.368	863.772	1018.337	-450.624	660.754	1073.882	-363.038	793.721	1557.486	-326.274	811.316	1513.964	-115.560	901.112	1503.413	-494.455	929.395	1434.698	-285.718	647.305	1357.785	-67.484	512.132	1320.221	-160.358	507.732	1349.682	-82.202	586.127	1189.208	-48.023	627.545	1078.262	-45.636	575.467	1066.807	-44.708	822.214	1273.554	-589.556	686.645	1188.521	-565.840	745.739	1218.076	-638.887	862.303	1096.985	-582.555	938.653	1056.031	-502.768	909.710	1009.259	-549.084
733	3.66000	960.903	539.136	-197.072	1006.151	428.852	-195.223	1062.939	105.933	-271.877	1003.481	96.352	-354.614	1176.293	22.748	-260.188	1231.218	66.156	-296.553	673.365	529.440	-516.785	560.325	539.408	-506.495	312.519	712.428	-450.815	343.069	768.289	-400.178	152.070	657.820	-446.168	149.629	618.049	-376.310	1035.059	315.477	-219.939	934.854	408.225	-190.960	954.709	302.033	-234.036	600.249	618.874	-523.340	490.983	664.737	-492.050	950.054	765.638	-149.504	985.091	660.105	-179.617	957.104	612.215	-162.617	848.031	721.932	-130.430	890.360	621.019	-173.065	820.280	704.863	-510.759	778.295	570.980	-504.286	710.107	742.567	-536.282	673.277	610.087	-515.719	859.346	1009.081	-190.617	658.956	1057.980	-263.094	864.709	1017.281	-451.233	661.998	1070.733	-363.779	792.956	1555.059	-324.196	812.818	1508.317	-113.111	897.974	1501.810	-495.052	929.669	1432.505	-286.702	654.250	1343.125	-65.202	520.094	1300.123	-157.635	514.998	1329.044	-78.678	602.436	1172.407	-47.597	650.436	1064.121	-46.989	598.968	1049.524	-45.805	816.223	1273.427	-591.243	678.920	1190.689	-565.191	738.000	1218.803	-638.862	846.531	1086.756	-588.728	920.731	1037.562	-511.732	887.478	994.246	-559.333
734	3.66500	948.458	532.774	-196.497	990.417	419.972	-195.591	1035.207	98.714	-276.917	974.365	97.405	-358.069	1140.739	28.359	-260.507	1199.305	55.270	-305.776	688.768	525.760	-520.891	577.469	537.543	-509.107	336.550	720.885	-452.106	368.145	775.858	-400.718	175.391	669.552	-448.928	174.118	633.453	-385.272	1015.820	305.859	-219.894	918.299	402.392	-193.728	935.583	295.132	-235.737	619.575	617.420	-527.081	512.171	666.748	-494.957	943.160	759.805	-143.810	976.165	654.555	-178.219	947.155	606.664	-163.936	839.288	717.773	-132.927	880.636	616.277	-174.027	830.171	704.057	-512.647	791.749	568.941	-507.574	719.142	738.854	-537.509	686.202	605.767	-519.762	859.550	1006.569	-191.271	659.178	1055.965	-263.123	865.874	1016.171	-451.925	662.879	1067.174	-364.505	791.983	1551.906	-321.973	814.337	1502.454	-110.497	894.498	1499.728	-495.583	929.869	1430.077	-287.882	662.020	1327.860	-62.950	528.962	1279.967	-154.012	523.458	1307.494	-74.443	620.186	1155.558	-47.194	674.881	1050.657	-48.453	624.337	1032.908	-46.811	809.779	1273.096	-592.693	671.033	1192.754	-564.932	730.122	1219.432	-639.150	829.960	1077.773	-595.311	902.014	1020.799	-521.333	863.681	981.324	-569.843
735	3.67000	936.646	526.270	-195.402	974.963	411.900	-195.766	1002.243	98.056	-288.387	934.738	87.554	-362.508	1104.474	31.514	-264.136	1161.434	54.203	-315.196	705.113	522.324	-524.813	595.106	536.960	-512.302	360.917	728.027	-453.762	393.167	781.884	-401.652	200.722	678.351	-451.491	194.111	641.762	-385.747	995.148	296.997	-221.578	902.223	396.852	-193.991	915.138	289.064	-235.302	639.683	615.770	-530.790	533.503	667.920	-497.973	936.028	753.317	-140.028	967.941	649.013	-176.624	937.479	601.533	-165.033	830.760	713.909	-134.355	871.217	611.582	-174.359	840.629	703.423	-513.953	806.019	567.297	-510.836	728.879	735.990	-540.287	699.938	601.837	-524.070	859.341	1003.915	-191.941	658.637	1053.448	-263.654	866.753	1014.141	-452.517	663.851	1063.348	-365.246	790.542	1547.527	-320.674	815.679	1496.310	-108.125	890.789	1497.399	-496.345	930.107	1427.504	-289.164	670.763	1311.659	-60.049	538.351	1259.647	-150.056	532.798	1285.696	-69.437	639.265	1139.060	-46.435	700.878	1038.426	-50.007	651.507	1017.037	-48.356	803.432	1272.419	-594.041	662.984	1194.981	-565.289	721.777	1220.164	-639.937	812.656	1070.725	-602.282	882.371	1007.706	-531.190	839.522	971.488	-579.647
736	3.67500	925.362	520.430	-195.225	962.708	402.822	-197.589	961.567	97.334	-298.611	893.829	74.416	-377.987	1064.929	32.159	-267.416	1121.596	50.835	-321.526	722.334	518.919	-528.746	613.909	536.385	-516.151	385.477	733.179	-455.396	418.026	786.510	-402.742	225.133	685.022	-455.136	217.360	647.998	-389.426	974.442	288.822	-227.015	889.587	392.409	-191.350	893.645	286.016	-235.398	659.818	613.711	-534.903	555.687	668.214	-500.701	929.454	748.412	-137.583	960.330	643.530	-174.082	928.022	596.889	-165.965	822.545	709.785	-135.675	862.584	607.499	-175.963	851.533	702.903	-515.181	821.638	565.758	-513.577	739.127	732.426	-542.817	714.987	597.532	-528.428	858.362	1001.127	-192.625	657.375	1050.899	-264.180	867.485	1011.852	-452.725	664.604	1059.865	-366.203	789.440	1542.918	-318.523	816.856	1490.072	-105.805	887.014	1494.816	-497.125	930.536	1425.060	-290.564	680.662	1295.492	-58.488	548.588	1239.075	-145.731	543.127	1263.356	-63.879	660.001	1123.257	-45.508	728.365	1027.793	-51.879	681.187	1003.054	-49.841	796.808	1271.601	-594.751	654.391	1197.127	-565.982	711.803	1221.493	-641.969	794.955	1065.981	-609.207	862.173	997.271	-541.314	816.463	964.041	-589.025
